<?xml version="1.0" encoding="utf-8"?>
<!-- Generator: Adobe Illustrator 22.0.0, SVG Export Plug-In . SVG Version: 6.00 Build 0)  -->
<svg version="1.1" xmlns="http://www.w3.org/2000/svg" xmlns:xlink="http://www.w3.org/1999/xlink" x="0px" y="0px"
	 viewBox="0 0 1024 768" style="enable-background:new 0 0 1024 768;" xml:space="preserve">
<style type="text/css">
	.st0{fill:#010101;}
	.st1{fill:#1A67F5;}
	.st2{fill:#007E53;}
	.st3{fill:#C7EDC6;}
	.st4{fill:#FE6601;}
	.st5{fill:none;}
	.st6{fill:#3F0000;}
</style>
<g id="Level_1">
	<rect x="47" y="306.3" class="st0" width="180" height="314.3"/>
	<rect x="239" y="306.3" class="st1" width="180" height="314.3"/>
	<rect x="431" y="306.3" class="st2" width="180" height="314.3"/>
	<rect x="623" y="306.3" class="st3" width="180" height="314.3"/>
	<rect x="815" y="306.3" class="st4" width="180" height="314.3"/>
</g>
<g id="Quotes_on_Design">
	<g>
		<rect x="0" y="196.9" class="st5" width="1024" height="328.1"/>
		<path class="st6" d="M56.8,198.2c0.4,0.1,0.8,0.4,1,0.9c0.8,1.4,1.2,2.5,1.2,3.1l-0.1,0.4c-0.4,0.3-1.2,0.8-2.5,1.7
			c-2.2,1.4-3.8,2.8-4.7,4c-1.2,1.7-1.8,3.3-1.8,4.9c0,2.3,1.4,4,4.2,5.2c1.9,0.8,3.2,1.7,4,2.6c1,1.2,1.6,2.6,1.6,4.1
			c0,2.1-0.8,3.9-2.4,5.5c-1.6,1.6-3.5,2.4-5.6,2.4c-3,0-5.6-1.3-8-4c-2.4-2.7-3.6-6.1-3.6-10.2c0-5.1,1.7-9.6,5.1-13.6
			C48.5,201.2,52.4,198.8,56.8,198.2z M82.5,198.3c0.7,0.1,1.4,0.5,2,1.3c0.8,1,1.2,1.9,1.2,2.6l-0.2,0.7c-3.9,2.4-6.4,4.4-7.5,5.9
			c-1.1,1.5-1.7,3.1-1.7,4.9c0,1.1,0.2,1.9,0.7,2.4c0.6,0.8,2,1.7,4.2,2.8c3.2,1.7,4.8,3.9,4.8,6.8c0,1.9-0.8,3.6-2.4,5.1
			s-3.6,2.3-6,2.3c-2.9,0-5.5-1.3-7.8-3.9c-2.3-2.6-3.5-5.8-3.5-9.5c0-3.1,0.7-6.1,2-9.1c1.3-3,3.3-5.5,5.9-7.6
			C76.7,200.9,79.5,199.3,82.5,198.3z"/>
		<path class="st6" d="M148.1,268.2c1.7,1.1,3,2,3.8,2.7c5.2,4.2,9.8,7.3,13.9,9.4c1.7,0.9,4.2,1.6,7.6,2.2c0.1,1.4,0.1,2.6,0.1,3.4
			c0,0.7,0,1.5-0.1,2.2c-0.9,0.1-1.9,0.2-2.9,0.2c-5.1,0-9.4-0.4-13-1.1c-2.5-0.5-6-1.8-10.3-3.7c-4.3-1.9-10-5.1-17.2-9.5
			c-3.4-2.1-6.4-3.8-9-4.9c-5.6-2.4-10.2-5.2-13.9-8.3c-3.7-3.2-6.6-7-8.8-11.5c-2.2-4.5-3.3-9.4-3.3-14.8c0-6.7,1.6-13,4.8-18.9
			c3.2-5.9,8.4-10.7,15.6-14.4c4.8-2.5,11-3.7,18.4-3.7c5.9,0,10.8,0.7,14.8,2.1c4,1.4,7.4,3.3,10.4,5.7s5.4,5,7.4,7.9
			c2,2.9,3.5,6.1,4.7,9.6c1.1,3.5,1.7,7.1,1.7,11c0,4.4-0.7,8.6-2.2,12.6c-1.5,3.9-3.4,7.3-5.7,10.2c-2.3,2.9-5.1,5.4-8.3,7.6
			C154.8,265.4,151.9,266.7,148.1,268.2z M134.5,265.3c2.6,0,5.6-0.8,9-2.5c3.4-1.7,6.2-4.8,8.6-9.4c2.3-4.6,3.5-11,3.5-19.1
			c0-6.1-0.6-11.2-1.9-15.1c-1.3-3.9-2.7-6.9-4.3-9c-1.6-2.1-3.6-3.8-6.1-5.2c-3.2-1.8-6.5-2.7-9.9-2.7c-3.1,0-5.6,0.5-7.6,1.5
			c-3.1,1.6-5.6,3.6-7.3,5.9c-2.4,3.3-3.9,7.1-4.7,11.4c-0.7,4.3-1.1,8.3-1.1,12.2c0,4.3,0.4,8.6,1.3,13c0.8,4.4,2.1,7.9,3.8,10.6
			c1.7,2.6,3.9,4.7,6.8,6.2C127.4,264.6,130.7,265.3,134.5,265.3z"/>
		<path class="st6" d="M181.8,225.1c0.4-0.1,0.7-0.3,1-0.3h16.2l1.2,0.1l0.1,3.6l-0.2,5.3l0.1,2.8l-0.1,8.2v5.6
			c0,3.6,0.2,6.5,0.6,8.6c0.5,1.6,1.4,2.8,2.6,3.6c1.2,0.8,2.7,1.2,4.4,1.2c1.6,0,2.9-0.2,4-0.5c1-0.3,2.2-0.9,3.5-1.8
			c1.3-0.9,2.2-1.6,2.5-1.9c1-1.2,1.8-2.2,2.2-3.2l0.4-13.5c0.1-1.4,0.1-2.6,0.1-3.5c0-0.9,0-2.1-0.1-3.5c-0.1-1.4-0.1-2.2-0.1-2.4
			l0.1-2l-0.1-1.2c-0.9-0.5-2.1-0.9-3.6-1l-3.6-0.3c-0.2-0.1-0.4-0.2-0.6-0.4c-0.1-0.7-0.2-1.3-0.2-1.6c0-0.4,0.1-1,0.2-1.8
			c1.2-0.2,2.2-0.3,3.1-0.3l8.4,0.1c2.2,0,5,0,8.3-0.1l0.1,4.1l-0.2,5.2l0.1,6.5l-0.1,9.3l-0.1,4.2l0.1,2.8
			c-0.1,1.9-0.2,2.9-0.2,3.2c0,0.9,0.2,1.6,0.5,2c0.3,0.4,0.6,0.6,0.9,0.6l5-0.2l0.7,0.1c0.1,1.3,0.2,2,0.2,2.2
			c0,0.3-0.1,0.7-0.2,1.2c-1.9,0.1-3.3,0.2-4.1,0.4c-3.9,0.9-8.1,2.2-12.7,3.8l-2.2-0.1l-0.1-8.8c-0.4,0.4-1.1,0.9-1.9,1.7
			c-3.2,2.8-5.9,4.7-8.2,5.7c-2.3,1-4.7,1.5-7.2,1.5c-3,0-5.5-0.6-7.7-1.8c-2.2-1.2-3.8-2.7-4.8-4.5c-0.8-1.4-1.3-3.4-1.5-6.1
			c-0.1-0.7-0.1-4.2-0.1-10.6l0.1-1.7c0.2-3.5,0.3-6.2,0.3-7.8c0-2.9-0.1-4.8-0.2-5.8c0-0.5-0.2-1-0.5-1.6c-0.5-0.2-1.1-0.4-1.8-0.5
			c-2.3-0.4-3.8-0.8-4.3-1.1c-0.2-0.1-0.3-0.3-0.3-0.7c0-0.2,0-0.5,0.1-0.9C181.7,226.6,181.7,226,181.8,225.1z"/>
		<path class="st6" d="M288.7,229.5c2.3,2.2,4,4.8,5.2,7.7c1.1,2.9,1.7,5.6,1.7,8.2c0,4.8-0.7,8.7-2.2,11.7
			c-2.2,4.5-5.3,7.8-9.1,9.9c-3.8,2.1-8.2,3.2-13.2,3.2c-5.6,0-10.4-1.3-14.4-3.8c-3.9-2.5-6.7-5.4-8.4-8.6c-1.7-3.2-2.5-7.2-2.5-12
			c0-2.4,0.4-4.9,1.2-7.3c0.8-2.4,1.9-4.6,3.3-6.4c1.4-1.8,2.9-3.3,4.6-4.6c2.4-1.7,4.9-3,7.3-3.7c2.4-0.7,5.4-1.1,8.9-1.1
			C278.5,222.8,284.4,225,288.7,229.5z M259,248.2c0.3,4.5,0.6,7.1,0.7,7.8c0.5,2.4,1.2,4.5,2.2,6.2c0.7,1.1,1.8,2.1,3.4,3
			c1.6,0.9,3.5,1.3,5.7,1.3c2.6,0,4.9-0.8,6.7-2.5c1.8-1.7,3.1-4.3,3.9-7.9c0.5-2.4,0.8-6.2,0.8-11.6c0-6.6-1.1-11.2-3.3-14
			s-5-4.1-8.6-4.1c-2.8,0-5.1,0.8-6.9,2.3c-1.8,1.6-3.1,3.9-3.8,6.9C259.4,237.6,259.1,241.8,259,248.2z"/>
		<path class="st6" d="M303.8,227.9c4.3-1.8,7.3-3.6,9.2-5.3c1.9-1.7,3.9-4.5,6.1-8.4h3c0.3,0.9,0.5,1.9,0.5,3c0,1.9,0,3.3-0.1,4.4
			l-0.2,3.2c0,0.2,0,0.6,0.1,1.2l1.2,0.1c0.2,0,1.9-0.1,5.1-0.2c0.3,0,1.6,0,4.1-0.1c0.2,1,0.3,1.8,0.3,2.6c0,0.8-0.1,1.8-0.4,2.9
			c-1.2,0.2-2.1,0.3-2.7,0.3c-0.3,0-0.9-0.1-1.7-0.2h-2.8l-1-0.1l-2.6,0.2l-0.1,20.7c0,4,0,6.5,0.2,7.5c0.2,1,0.6,1.9,1.3,2.8
			c0.8,0.4,1.8,0.6,2.8,0.6c1,0,1.7-0.1,2.2-0.3c0.5-0.2,1.3-0.7,2.4-1.6c0.2-0.2,0.6-0.4,1-0.8c0.9,0.7,1.6,1.4,2.1,2.1l0.2,0.6
			c-1.3,2-3,3.5-5.3,4.7c-2.3,1.1-4.7,1.7-7.3,1.7c-3.4,0-6.1-1.1-8.2-3.2c-2.1-2.1-3.1-5.4-3.1-9.9l0.2-9.5v-15.4l-1.7-0.1
			l-3.9,0.1l-0.7-0.3c-0.2-0.3-0.3-0.6-0.3-0.9C303.7,230.1,303.7,229.3,303.8,227.9z"/>
		<path class="st6" d="M341.1,240.2c0.9-3.1,1.8-5.1,2.5-6.1c2-3,4.2-5.3,6.5-6.9c2.3-1.7,4.4-2.8,6.2-3.3c2.4-0.7,4.3-1,5.8-1
			c3.4,0,6.1,0.3,8.2,0.8c2.1,0.5,3.8,1.3,5.3,2.2c2,1.4,3.6,2.8,4.9,4.3c1.2,1.4,2.2,3.1,3,5.1c0.8,1.9,1.2,4.3,1.3,7.1l-6-0.1
			c-1.7,0-5.3-0.2-10.9-0.5c-2.1-0.2-3.5-0.3-4.3-0.3c-0.3,0-2.2,0-5.9,0.1h-4.7c-0.1,0.5-0.1,0.9-0.1,1.3c0,1.9,0.2,3.9,0.7,6.1
			c0.5,2.1,1.2,4,2.1,5.6c0.9,1.6,2.1,3,3.5,4.2c1.4,1.2,2.8,2,4.3,2.5l3.1,1c2.8,0,4.6-0.1,5.6-0.3c1.7-0.4,3.3-0.8,4.6-1.4
			c1.3-0.6,2.9-1.5,4.8-2.8c1.3,0.9,2.4,1.8,3.3,2.5c-3.2,3.5-6.5,6-9.9,7.6c-3.4,1.6-7.2,2.4-11.5,2.4c-2.9,0-5.2-0.3-7-0.8
			c-2.4-0.7-4.6-1.6-6.6-3c-2-1.3-3.6-3-5-5c-1.4-2-2.5-4-3.1-6.1c-0.9-2.7-1.4-5-1.4-6.6C340.3,245.6,340.6,242.7,341.1,240.2z
			 M372.6,237.9c0-2-0.4-4-1.2-5.8c-0.8-1.9-1.9-3.3-3.5-4.3c-1.6-1-3.2-1.6-4.8-1.6c-2.4,0-4.6,1.1-6.6,3.2c-2,2.1-3.1,5-3.3,8.7
			l12.4,0.1c0.8,0,1.9-0.1,3.4-0.2c1-0.1,1.8-0.1,2.2-0.1C371.4,237.9,371.9,237.9,372.6,237.9z"/>
		<path class="st6" d="M394.5,253.8c1.1-0.2,1.9-0.3,2.4-0.3c0.3,0,0.6,0,1.1,0.1l0.5,0.5c2,3.4,3.2,5.5,3.8,6.2
			c1.3,1.5,2.5,2.7,3.7,3.6c0.8,0.6,2.1,1.2,3.9,1.8c1.2,0.4,2.5,0.7,3.8,0.7c2.3,0,4.2-0.7,5.9-2.2c1.6-1.5,2.4-3,2.4-4.7
			c0-1.2-0.3-2.1-0.9-3c-0.6-0.8-1.8-1.6-3.7-2.4c-0.9-0.4-3.2-1-6.8-2c-3.6-0.9-5.8-1.5-6.6-1.8c-1.7-0.7-3.2-1.6-4.5-2.7
			c-1.3-1.2-2.3-2.5-3-3.9c-0.9-2.1-1.4-3.8-1.4-5.3c0-2.7,0.4-5,1.2-6.7c0.8-1.8,1.9-3.3,3.4-4.6c1-1,2.6-1.9,4.7-2.8
			c2.1-0.8,4.4-1.2,6.8-1.2c3.4,0,6.4,0.2,9.1,0.7c2.6,0.5,4.8,1.2,6.6,2.1c0.2,0.8,0.5,2.7,0.9,5.7c0.4,3,0.6,4.8,0.6,5.3
			c0,0.3-0.1,0.5-0.2,0.8c-0.9,0.3-1.7,0.4-2.3,0.4c-0.4,0-0.9,0-1.6-0.1c-0.3-0.5-0.8-1.3-1.3-2.3c-1.7-3.2-3.5-5.5-5.3-6.8
			c-1.8-1.3-3.9-2-6.3-2c-2.5,0-4.6,0.7-6.3,2.2c-1.2,1-1.8,2.5-1.8,4.3c0,1.2,0.6,2.4,1.9,3.6c1.2,1.3,3.4,2.2,6.6,2.9
			c4.7,1,8.2,2.1,10.5,3.1c3.3,1.5,5.5,3.3,6.9,5.4s2,4.4,2,7.2c0,4.2-1.6,7.7-4.7,10.5c-3.2,2.8-7.8,4.2-13.8,4.2
			c-0.8,0-2.9-0.2-6.2-0.5c-1.5-0.2-3.3-0.5-5.4-1.1c-0.5-0.1-1.8-0.7-4-1.6c-0.4-0.2-0.7-0.5-0.8-0.8c-0.2-0.3-0.4-1.8-0.7-4.5
			C394.8,257.3,394.5,254.7,394.5,253.8z"/>
		<path class="st6" d="M512.7,229.5c2.3,2.2,4,4.8,5.2,7.7c1.1,2.9,1.7,5.6,1.7,8.2c0,4.8-0.7,8.7-2.2,11.7
			c-2.2,4.5-5.3,7.8-9.1,9.9c-3.8,2.1-8.2,3.2-13.2,3.2c-5.6,0-10.4-1.3-14.4-3.8c-3.9-2.5-6.7-5.4-8.4-8.6c-1.7-3.2-2.5-7.2-2.5-12
			c0-2.4,0.4-4.9,1.2-7.3c0.8-2.4,1.9-4.6,3.3-6.4c1.4-1.8,2.9-3.3,4.6-4.6c2.4-1.7,4.9-3,7.3-3.7c2.4-0.7,5.4-1.1,8.9-1.1
			C502.6,222.8,508.5,225,512.7,229.5z M483.1,248.2c0.3,4.5,0.6,7.1,0.7,7.8c0.5,2.4,1.2,4.5,2.2,6.2c0.7,1.1,1.8,2.1,3.4,3
			c1.6,0.9,3.5,1.3,5.7,1.3c2.6,0,4.9-0.8,6.7-2.5c1.8-1.7,3.1-4.3,3.9-7.9c0.5-2.4,0.8-6.2,0.8-11.6c0-6.6-1.1-11.2-3.3-14
			s-5-4.1-8.6-4.1c-2.8,0-5.1,0.8-6.9,2.3c-1.8,1.6-3.1,3.9-3.8,6.9C483.4,237.6,483.2,241.8,483.1,248.2z"/>
		<path class="st6" d="M526.9,266.3c0.9-0.4,1.8-0.7,2.6-0.9c2-0.3,3.1-0.6,3.5-0.8c0.5-0.3,0.9-0.7,1.1-1.2
			c0.2-0.7,0.3-2.3,0.3-4.8v-4.7l0.1-3.9l-0.2-5.7v-3.4c0-2.3-0.2-4.1-0.5-5.6c-0.1-0.5-0.6-1.1-1.4-1.6c-1-0.7-2.7-1.4-5.1-2.1
			l-0.1-2.6c0.5-0.1,0.9-0.2,1.3-0.3c0.4-0.1,1.8-0.4,4.4-1.1c2-0.7,3.3-1.2,3.8-1.5c0.2-0.1,0.5-0.3,0.9-0.5
			c0.4-0.4,0.9-0.7,1.5-1.1c1.1-0.8,2.4-2.1,3.9-4l2.9-0.2l-0.1,6.1c-0.1,0.6-0.1,1.1-0.1,1.5c0,0.3,0,1.1,0.1,2.5
			c3-2.6,5.7-4.4,8.2-5.4c3.2-1.3,6.3-2,9.1-2c3.4,0,6.4,0.8,8.9,2.5c2.6,1.7,4.2,3.6,5,5.8c0.8,2.2,1.2,6.7,1.2,13.4l-0.2,17.7
			c0,0.8,0.1,1.5,0.4,2.1c0.4,0.2,1.4,0.5,3,0.8l2.7,0.5c0.3,0.5,0.5,1,0.5,1.7c0,0.4,0,1-0.1,1.8l-10.6-0.8l-3.1,0.1h-2.5l-7.2,0.5
			h-1.8c0-0.5-0.1-0.8-0.1-1c0-0.6,0-1.3,0.1-2c0.5-0.1,1.8-0.3,3.8-0.5c0.5-0.1,1.1-0.2,1.8-0.4c0.7-0.3,1.1-0.6,1.2-0.9
			c0.3-0.6,0.4-1.8,0.4-3.5c0-3,0-5.4-0.1-7l0.1-6.3c0-7.6-0.5-12.4-1.5-14.3c-1.4-2.7-3.4-4.1-6.2-4.1c-2,0-4.1,0.5-6.3,1.5
			c-2.2,1-4.4,2.6-6.7,4.7l-0.1,0.9l0.1,3.4l-0.1,3.6l0.2,8.7l-0.1,1.4c0,5.9,0.2,9.2,0.7,10c0.5,0.8,2.3,1.6,5.4,2.5
			c0.1,0.6,0.2,1.1,0.2,1.4c0,0.4-0.1,1.1-0.4,2c-1.1,0-2.1,0.1-2.8,0.1s-2-0.1-3.6-0.4l-5.8-0.1c-2.9,0-7.1,0.1-12.5,0.4
			c-0.1-0.4-0.2-0.7-0.2-1.1C526.9,267.7,526.9,267.1,526.9,266.3z"/>
		<path class="st6" d="M630.3,227.4c1.8-1.2,3.5-2.1,5.1-2.7c1.6-0.5,4-1,7-1.2h3c3.9,0,7.7,1.4,11.3,4.1l0.1-1.3l-0.1-3.6l0.2-5.8
			c0-6.1-0.5-10-1.4-11.6c-0.5-1-1.5-1.5-2.8-1.6c-1.4-0.1-2.4-0.3-3.3-0.7v-2.6c0.7-0.2,1.6-0.3,2.7-0.4c1.1,0,3.2-0.4,6.3-1.1
			l1.8-0.4l5.4-1.2c1.1-0.3,1.8-0.4,2-0.4c0.2,0,0.5,0,0.9,0.1c0.2,0.8,0.3,1.3,0.3,1.7l-0.1,0.8v1c0,1,0.1,3.7,0.2,8.1v2.9l0.1,1.6
			l-0.1,2.7l0.2,5.6l-0.1,3.3c-0.1,1.4-0.1,3.7-0.1,6.8c0,0.5,0,1,0.1,1.4v2c0,0.6-0.1,1-0.1,1.3c0,0.5,0.1,1.3,0.2,2.3v3l-0.1,1.1
			c-0.1,1-0.1,2.5-0.1,4.3c0,1.9,0,3.6,0.1,5.1c0,0.6,0.1,1.2,0.1,1.7v4.1c0,1.3,0,2.9,0.1,4.7c0.7,0.4,2.2,0.7,4.8,0.9
			c0.8,0,1.5,0.1,2.1,0.3c0.2,0.5,0.3,0.9,0.3,1.2c0,0.3-0.1,0.8-0.4,1.5c-1.5,0.4-3,0.6-4.7,0.8c-5,0.6-8.5,1.5-10.6,2.6
			c-1,0.6-1.7,0.9-2.1,0.9s-0.8,0-1.4-0.1c0-0.7,0.1-1.1,0.1-1.3c0-2.5-0.1-4.1-0.2-4.8c-0.5,0.3-1.2,0.7-2,1.1
			c-2.4,1.5-4.6,2.5-6.6,3c-2,0.6-4.3,0.8-6.8,0.8c-4.6,0-8.2-0.9-10.9-2.6c-4-2.5-6.8-5.6-8.3-9.1c-1.5-3.5-2.3-7.4-2.3-11.7
			C620.2,238.8,623.6,232.6,630.3,227.4z M647,263.2c0.8,0.1,1.4,0.1,2,0.1c1.2,0,2.5-0.2,3.8-0.7c1.4-0.5,2.8-1.2,4.3-2.2
			c0-1.2,0.1-1.9,0.1-2.2c0-11.5-0.2-18.4-0.5-20.7c-0.4-3.1-1.6-5.6-3.6-7.3c-2-1.7-4.3-2.5-7.1-2.5c-1.6,0-3.1,0.3-4.5,0.9
			c-1.4,0.6-2.6,1.4-3.5,2.5c-1.3,1.6-2.3,3.4-3,5.4c-0.9,2.8-1.4,5.4-1.4,7.9c0,5.9,1.2,10.4,3.7,13.5S643,262.8,647,263.2z"/>
		<path class="st6" d="M683,240.2c0.9-3.1,1.8-5.1,2.5-6.1c2-3,4.2-5.3,6.5-6.9c2.3-1.7,4.4-2.8,6.2-3.3c2.4-0.7,4.3-1,5.8-1
			c3.4,0,6.1,0.3,8.2,0.8c2.1,0.5,3.8,1.3,5.3,2.2c2,1.4,3.6,2.8,4.9,4.3c1.2,1.4,2.2,3.1,3,5.1c0.8,1.9,1.2,4.3,1.3,7.1l-6-0.1
			c-1.7,0-5.3-0.2-10.9-0.5c-2.1-0.2-3.5-0.3-4.3-0.3c-0.3,0-2.2,0-5.9,0.1h-4.7c-0.1,0.5-0.1,0.9-0.1,1.3c0,1.9,0.2,3.9,0.7,6.1
			c0.5,2.1,1.2,4,2.1,5.6c0.9,1.6,2.1,3,3.5,4.2c1.4,1.2,2.8,2,4.3,2.5l3.1,1c2.8,0,4.6-0.1,5.6-0.3c1.7-0.4,3.3-0.8,4.6-1.4
			c1.3-0.6,2.9-1.5,4.8-2.8c1.3,0.9,2.4,1.8,3.3,2.5c-3.2,3.5-6.5,6-9.9,7.6c-3.4,1.6-7.2,2.4-11.5,2.4c-2.9,0-5.2-0.3-7-0.8
			c-2.4-0.7-4.6-1.6-6.6-3c-2-1.3-3.6-3-5-5c-1.4-2-2.5-4-3.1-6.1c-0.9-2.7-1.4-5-1.4-6.6C682.3,245.6,682.5,242.7,683,240.2z
			 M714.5,237.9c0-2-0.4-4-1.2-5.8c-0.8-1.9-1.9-3.3-3.5-4.3c-1.6-1-3.2-1.6-4.8-1.6c-2.4,0-4.6,1.1-6.6,3.2c-2,2.1-3.1,5-3.3,8.7
			l12.4,0.1c0.8,0,1.9-0.1,3.4-0.2c1-0.1,1.8-0.1,2.2-0.1C713.4,237.9,713.9,237.9,714.5,237.9z"/>
		<path class="st6" d="M736.4,253.8c1.1-0.2,1.9-0.3,2.4-0.3c0.3,0,0.6,0,1.1,0.1l0.5,0.5c2,3.4,3.2,5.5,3.8,6.2
			c1.3,1.5,2.5,2.7,3.7,3.6c0.8,0.6,2.1,1.2,3.9,1.8c1.2,0.4,2.5,0.7,3.8,0.7c2.3,0,4.2-0.7,5.9-2.2c1.6-1.5,2.4-3,2.4-4.7
			c0-1.2-0.3-2.1-0.9-3c-0.6-0.8-1.8-1.6-3.7-2.4c-0.9-0.4-3.2-1-6.8-2c-3.6-0.9-5.8-1.5-6.6-1.8c-1.7-0.7-3.2-1.6-4.5-2.7
			c-1.3-1.2-2.3-2.5-3-3.9c-0.9-2.1-1.4-3.8-1.4-5.3c0-2.7,0.4-5,1.2-6.7c0.8-1.8,1.9-3.3,3.4-4.6c1-1,2.6-1.9,4.7-2.8
			c2.1-0.8,4.4-1.2,6.8-1.2c3.4,0,6.4,0.2,9.1,0.7c2.6,0.5,4.8,1.2,6.6,2.1c0.2,0.8,0.5,2.7,0.9,5.7c0.4,3,0.6,4.8,0.6,5.3
			c0,0.3-0.1,0.5-0.2,0.8c-0.9,0.3-1.7,0.4-2.3,0.4c-0.4,0-0.9,0-1.6-0.1c-0.3-0.5-0.8-1.3-1.3-2.3c-1.7-3.2-3.5-5.5-5.3-6.8
			c-1.8-1.3-3.9-2-6.3-2c-2.5,0-4.6,0.7-6.3,2.2c-1.2,1-1.8,2.5-1.8,4.3c0,1.2,0.6,2.4,1.9,3.6c1.2,1.3,3.4,2.2,6.6,2.9
			c4.7,1,8.2,2.1,10.5,3.1c3.3,1.5,5.5,3.3,6.9,5.4c1.3,2.1,2,4.4,2,7.2c0,4.2-1.6,7.7-4.7,10.5c-3.2,2.8-7.8,4.2-13.8,4.2
			c-0.8,0-2.9-0.2-6.2-0.5c-1.5-0.2-3.3-0.5-5.4-1.1c-0.5-0.1-1.8-0.7-4-1.6c-0.4-0.2-0.7-0.5-0.8-0.8c-0.2-0.3-0.4-1.8-0.7-4.5
			C736.8,257.3,736.5,254.7,736.4,253.8z"/>
		<path class="st6" d="M780.6,269l-0.1-3.5l6.1-0.8c0.9-0.3,1.5-0.6,1.9-1.1c0.3-0.5,0.5-1.6,0.5-3.3v-0.6c0-0.4,0-1.2,0.1-2.4
			c0.1-1.1,0.1-2.1,0.1-3c0-0.7-0.1-2-0.2-4l0.1-2.7l-0.1-2.5l0.2-8.8c0-1.1-0.1-2.3-0.3-3.5c-0.4-0.5-1.1-1-2.2-1.4
			c-1.1-0.4-2.9-0.7-5.5-0.9v-3c3.7-0.2,7-1,9.8-2.3c1.9-0.9,4-2.4,6.2-4.6h3.6c0.1,4.5,0.2,10.3,0.2,17.5l-0.4,22.1
			c0,1.5,0.1,2.9,0.2,4.1c1.1,0.4,2.9,0.8,5.5,1.2c1,0.1,1.8,0.3,2.3,0.5l-0.1,3c-1,0-1.7,0.1-2.2,0.1c-0.5,0-1.4,0-2.5-0.1
			c-3.7-0.2-8.6-0.3-14.8-0.3c-1.8,0-3.5,0.1-5.1,0.2C782.3,268.9,781.2,269,780.6,269z M788.2,204.3c0-2,0.6-3.6,1.9-4.8
			c1.3-1.2,2.9-1.9,4.9-1.9c2.1,0,3.9,0.7,5.3,2c1.4,1.3,2.1,2.8,2.1,4.5c0,1.2-0.3,2.5-0.8,3.7c-0.6,1.2-1.4,2.2-2.7,3
			c-1.2,0.7-2.4,1.1-3.7,1.1c-1.7,0-3.3-0.7-4.8-2.2C788.9,208.1,788.2,206.4,788.2,204.3z"/>
		<path class="st6" d="M826.8,276.2c-4.9-1.2-8.1-2.7-9.8-4.3c-1.6-1.6-2.4-3.5-2.4-5.5c0-1.6,0.4-2.9,1.3-3.7s4.8-3.3,11.9-7.3
			c-3.6-2.1-6-4.2-7.4-6.2c-1.7-2.6-2.6-5.2-2.6-7.7c0-2.3,0.5-4.7,1.4-7.3c2-3.7,4.8-6.4,8.3-8.3c3.5-1.8,8.1-2.7,13.6-2.7
			c2.2,0,4.2,0.1,5.8,0.4c0.8,0.1,2,0.5,3.8,1.2l2.1,0.8c1.8,1.2,3.4,2.3,4.8,3.6c3.1-0.6,5.6-1.2,7.5-1.9c1.3-0.4,2.5-0.6,3.5-0.6
			c0.7,0,1.3,0.3,1.7,0.9c0.4,0.6,0.7,2.1,0.7,4.3c0,2-0.3,3.4-0.8,4.1c-0.5,0.8-1.1,1.2-1.7,1.2c-0.2,0-0.8-0.3-1.9-0.8
			c-2.5-1.1-4.4-1.7-5.9-1.8c0.9,2.5,1.3,4.9,1.3,7.1c0,2.6-0.8,5.2-2.3,7.6c-1.5,2.4-3.6,4.3-6.3,5.7c-3.7,2-7.4,3-11.2,3
			c-2.4,0-4-0.1-4.9-0.2c-1.3-0.1-3-0.5-5.3-1c-3.1,1.7-5.2,3.1-6.5,4.3c-0.6,0.6-0.9,1.3-0.9,2.1c0,0.7,0.3,1.4,0.9,2
			c0.6,0.6,1.7,1,3.2,1.2c0.3,0,0.7,0.1,1.2,0.2c1.9,0.1,4.5,0.2,7.6,0.2c0.4,0,1.7-0.1,3.8-0.2c0.6,0,1.1-0.1,1.6-0.1
			c8.6,0,14.7,1.4,18.2,4.1c3.4,2.7,5.1,6.1,5.1,10.1c0,2.1-0.6,4.2-1.8,6.3c-1.2,2-2.8,3.7-4.9,5c-2.1,1.3-5,2.4-8.9,3.4
			c-3.9,1-8,1.5-12.5,1.5c-4.8,0-9.1-0.5-12.9-1.4c-3.8-0.9-6.8-2.5-9-4.6c-1.7-1.6-2.5-3.3-2.5-5.1c0-1.8,0.7-3.4,2.1-4.7
			C817.4,279.9,821,278.2,826.8,276.2z M843.5,293.4c5.3-0.6,9.5-2.1,12.5-4.3c1.9-1.5,2.8-2.9,2.8-4.4c0-0.8-0.2-1.6-0.6-2.3
			s-1.1-1.5-2.1-2.2c-1-0.7-2.2-1.3-3.5-1.5c-1.8-0.4-4.3-0.5-7.3-0.5l-6.7-0.1c-5.9,0-9.8,0.7-11.8,2.2c-2,1.4-3,3.4-3,5.7
			c0,1.3,0.6,2.5,1.7,3.8c1.1,1.2,3,2.2,5.6,3c2.6,0.7,5.5,1.1,8.5,1.1C840.5,293.6,841.8,293.6,843.5,293.4z M840.4,254.5
			c2.4,0,4.5-1,6.2-3.1c1.7-2.1,2.6-5.3,2.6-9.7c0-5.8-0.8-9.7-2.3-11.7c-1.5-2-3.7-3-6.5-3c-0.4,0-1.3,0.1-2.9,0.3
			c-1.7,0.3-3.3,1.6-4.7,3.7c-1.4,2.1-2.1,5-2.1,8.6c0,1,0.1,2.9,0.4,5.8c0.1,1.2,0.4,2.3,0.8,3.2c0.6,1.4,1.3,2.5,2,3.3
			c0.7,0.8,1.7,1.4,2.9,1.9C838,254.2,839.2,254.5,840.4,254.5z"/>
		<path class="st6" d="M874.6,266.3c0.9-0.4,1.8-0.7,2.6-0.9c2-0.3,3.1-0.6,3.5-0.8c0.5-0.3,0.9-0.7,1.1-1.2
			c0.2-0.7,0.3-2.3,0.3-4.8v-4.7l0.1-3.9l-0.2-5.7v-3.4c0-2.3-0.2-4.1-0.5-5.6c-0.1-0.5-0.6-1.1-1.4-1.6c-1-0.7-2.7-1.4-5.1-2.1
			l-0.1-2.6c0.5-0.1,0.9-0.2,1.3-0.3c0.4-0.1,1.8-0.4,4.4-1.1c2-0.7,3.3-1.2,3.8-1.5c0.2-0.1,0.5-0.3,0.9-0.5
			c0.4-0.4,0.9-0.7,1.5-1.1c1.1-0.8,2.4-2.1,3.9-4l2.9-0.2l-0.1,6.1c-0.1,0.6-0.1,1.1-0.1,1.5c0,0.3,0,1.1,0.1,2.5
			c3-2.6,5.7-4.4,8.2-5.4c3.2-1.3,6.3-2,9.1-2c3.4,0,6.4,0.8,8.9,2.5c2.6,1.7,4.2,3.6,5,5.8c0.8,2.2,1.2,6.7,1.2,13.4l-0.2,17.7
			c0,0.8,0.1,1.5,0.4,2.1c0.4,0.2,1.4,0.5,3,0.8l2.7,0.5c0.3,0.5,0.5,1,0.5,1.7c0,0.4,0,1-0.1,1.8l-10.6-0.8l-3.1,0.1h-2.5l-7.2,0.5
			h-1.8c0-0.5-0.1-0.8-0.1-1c0-0.6,0-1.3,0.1-2c0.5-0.1,1.8-0.3,3.8-0.5c0.5-0.1,1.1-0.2,1.8-0.4c0.7-0.3,1.1-0.6,1.2-0.9
			c0.3-0.6,0.4-1.8,0.4-3.5c0-3,0-5.4-0.1-7l0.1-6.3c0-7.6-0.5-12.4-1.5-14.3c-1.4-2.7-3.4-4.1-6.2-4.1c-2,0-4.1,0.5-6.3,1.5
			c-2.2,1-4.4,2.6-6.7,4.7l-0.1,0.9l0.1,3.4l-0.1,3.6l0.2,8.7l-0.1,1.4c0,5.9,0.2,9.2,0.7,10c0.5,0.8,2.3,1.6,5.4,2.5
			c0.1,0.6,0.2,1.1,0.2,1.4c0,0.4-0.1,1.1-0.4,2c-1.1,0-2.1,0.1-2.8,0.1s-2-0.1-3.6-0.4l-5.8-0.1c-2.9,0-7.1,0.1-12.5,0.4
			c-0.1-0.4-0.2-0.7-0.2-1.1C874.6,267.7,874.6,267.1,874.6,266.3z"/>
		<path class="st6" d="M939,229c0.4-0.6,1.1-1.1,2.1-1.6c2-1,3.7-2.5,5-4.2c1.3-1.8,2-3.5,2-5c0-2-1-3.5-2.9-4.5
			c-2.8-1.4-4.5-2.6-5.3-3.5c-0.9-1.2-1.4-2.6-1.4-4.2c0-2.1,0.8-3.8,2.3-5.3c1.6-1.5,3.5-2.2,5.7-2.2c2.9,0,5.5,1.3,7.9,4
			c2.4,2.7,3.6,6,3.6,10c0,4-1,7.7-3,11c-2,3.3-4.7,6-8.1,7.9c-2.2,1.3-3.9,1.9-5.1,1.9c-0.6,0-1.1-0.3-1.5-0.8
			C939.7,231.7,939.3,230.6,939,229z M965.4,228.9c0.5-0.4,1-0.8,1.7-1.2c2.1-1.2,3.9-2.6,5.4-4.3c1.4-1.7,2.1-3.4,2.1-5.1
			c0-1.2-0.3-2.2-0.9-3c-0.6-0.8-2-1.7-4.1-2.8c-1.3-0.7-2.1-1.1-2.3-1.3c-0.7-0.7-1.3-1.4-1.7-2.3s-0.7-1.8-0.7-2.9
			c0-2,0.8-3.7,2.3-5.2c1.6-1.5,3.5-2.2,5.8-2.2c3,0,5.7,1.3,8.1,4c2.4,2.7,3.7,6,3.7,10c0,3.4-0.9,6.6-2.7,9.7
			c-1.8,3.1-4.4,5.8-7.7,8.1c-2.5,1.7-4.7,2.6-6.5,2.6c-0.4,0-0.9-0.3-1.3-0.9c-0.9-1.1-1.3-2.1-1.3-2.9L965.4,228.9z"/>
	</g>
</g>
</svg>
